<svg width="48" height="73" viewBox="0 0 48 73" fill="none" xmlns="http://www.w3.org/2000/svg">
<path d="M8.32162 17.3688C8.02221 18.1998 7.7351 19.3117 7.55463 20.4109C7.42338 21.2271 7.33725 22.0392 7.32084 22.7447C8.56772 23.807 9.91713 24.574 11.4142 24.6437C10.0525 22.4904 8.83022 19.7218 8.32162 17.3688ZM2.83045 18.9918C2.95678 22.0843 4.14418 26.3213 7.37006 28.5566L7.59564 28.7125L7.51361 28.9709C7.38236 29.3851 7.19369 29.7502 6.89838 30.0291C6.59896 30.308 6.20521 30.4884 5.72123 30.5746C4.79838 30.7386 3.50064 30.6074 1.54215 30.2588C1.1484 31.2472 1.20213 32.3341 1.55978 33.216C1.91744 34.0896 2.55605 34.7172 3.28654 34.8812C4.30578 33.5769 5.84018 31.9937 7.94428 32.0881C10.0771 32.1824 12.5175 31.5918 13.9695 30.1357C14.4822 29.6271 14.921 28.4007 15.1753 27.322C15.4296 26.2433 15.5322 25.3123 15.5322 25.3123L15.5568 25.0621L15.8029 24.9965C16.6888 24.7668 17.7552 24.5576 18.9488 23.9547C18.596 23.7168 18.1818 23.4379 17.7019 23.1507C16.9677 22.716 16.1597 22.3386 15.7619 22.2935C15.081 22.2238 14.6954 22.3468 14.4288 22.5437C14.1663 22.7406 13.9941 23.0441 13.8423 23.4091C13.6947 23.7742 13.5798 24.1884 13.3747 24.5617C13.1656 24.939 12.8005 25.2918 12.2755 25.3492C9.97865 25.6158 8.01811 24.4099 6.37338 22.8841C5.01986 21.6291 3.84764 20.1443 2.83045 18.9918Z" fill="#FFD700"/>
<path d="M15.7578 15.7191C15.4953 17.1091 16.0367 17.95 17.0949 18.4385C17.2836 18.7736 17.4395 19.1066 17.5625 19.4388C16.935 18.7407 16.1967 18.4007 15.1836 18.9007C15.7619 20.0336 16.6437 20.2304 17.7061 19.8613C17.9604 20.7226 18.0219 21.5675 17.9645 22.4207C17.9645 22.4289 17.9645 22.4371 17.9604 22.4453C18.0014 22.4699 18.0424 22.4904 18.0793 22.515C18.2803 22.6339 18.4771 22.757 18.6658 22.88C18.6822 22.7447 18.6945 22.6052 18.7027 22.4699C18.752 21.748 18.7191 21.0179 18.5674 20.2755C19.6666 20.4847 20.3311 19.9228 20.733 18.8966C19.7404 18.79 18.8914 18.9466 18.4648 19.8367C18.3582 19.4511 18.2187 19.0615 18.0424 18.6694C19.0145 18.0193 19.5887 17.1899 19.1088 15.8959C18.1859 16.2458 17.7348 16.8036 17.6199 17.5148C17.4312 16.6182 16.9186 15.9484 15.7578 15.7191ZM18.2557 25.0621C17.9645 25.1687 17.6855 25.263 17.4189 25.341C17.3451 25.624 17.2672 25.907 17.1893 26.19L17.9029 26.3869C18.026 25.948 18.1449 25.505 18.2557 25.0621Z" fill="#FFD700"/>
<path d="M39.6784 46.5688C39.9778 47.3998 40.2649 48.5118 40.4454 49.611C40.5766 50.4272 40.6628 51.2393 40.6792 51.9448C39.4323 53.0071 38.0829 53.7741 36.5858 53.8438C37.9475 51.6905 39.1698 48.9219 39.6784 46.5688ZM45.1696 48.1918C45.0432 51.2844 43.8558 55.5213 40.6299 57.7567L40.4044 57.9125L40.4864 58.1709C40.6176 58.5852 40.8063 58.9502 41.1016 59.2291C41.401 59.508 41.7948 59.6885 42.2788 59.7747C43.2016 59.9387 44.4994 59.8075 46.4579 59.4588C46.8516 60.4473 46.7979 61.5342 46.4402 62.4161C46.0826 63.2897 45.4439 63.9172 44.7135 64.0813C43.6942 62.777 42.1598 61.1938 40.0557 61.2881C37.9229 61.3825 35.4825 60.7918 34.0305 59.3358C33.5178 58.8272 33.079 57.6008 32.8247 56.5221C32.5704 55.4434 32.4678 54.5123 32.4678 54.5123L32.4432 54.2621L32.1971 54.1965C31.3112 53.9668 30.2448 53.7577 29.0512 53.1547C29.404 52.9168 29.8182 52.6379 30.2981 52.3508C31.0323 51.9161 31.8403 51.5387 32.2381 51.4936C32.919 51.4239 33.3046 51.5469 33.5712 51.7438C33.8337 51.9407 34.0059 52.2442 34.1577 52.6092C34.3053 52.9743 34.4202 53.3885 34.6253 53.7618C34.8344 54.1391 35.1995 54.4918 35.7245 54.5493C38.0213 54.8159 39.9819 53.61 41.6266 52.0842C42.9801 50.8291 44.1524 49.3444 45.1696 48.1918Z" fill="#FFD700"/>
<path d="M32.2422 44.9192C32.5047 46.3092 31.9633 47.15 30.9051 47.6385C30.7164 47.9736 30.5605 48.3067 30.4375 48.6389C31.065 47.9408 31.8033 47.6008 32.8164 48.1008C32.2381 49.2336 31.3563 49.4305 30.2939 49.0614C30.0396 49.9227 29.9781 50.7676 30.0355 51.6207C30.0355 51.6289 30.0355 51.6371 30.0396 51.6453C29.9986 51.67 29.9576 51.6905 29.9207 51.7151C29.7197 51.834 29.5229 51.9571 29.3342 52.0801C29.3178 51.9448 29.3055 51.8053 29.2973 51.67C29.248 50.9481 29.2809 50.218 29.4326 49.4756C28.3334 49.6848 27.6689 49.1229 27.267 48.0967C28.2596 47.99 29.1086 48.1467 29.5352 49.0367C29.6418 48.6512 29.7813 48.2616 29.9576 47.8694C28.9855 47.2193 28.4113 46.39 28.8912 45.096C29.8141 45.4458 30.2652 46.0036 30.3801 46.7149C30.5688 45.8183 31.0814 45.1485 32.2422 44.9192ZM29.7443 54.2621C30.0355 54.3688 30.3145 54.4631 30.5811 54.541C30.6549 54.8241 30.7328 55.1071 30.8107 55.3901L30.0971 55.5869C29.974 55.1481 29.8551 54.7051 29.7443 54.2621Z" fill="#FFD700"/>
<path d="M4.98 55.36H8.18V57.52C8.18 58.48 8.34 59.32 8.66 60.04C8.98 60.7334 9.44667 61.2934 10.06 61.72C10.7 62.12 11.4733 62.32 12.38 62.32C13.26 62.32 14.02 62.0534 14.66 61.52C15.3 60.9867 15.62 60.3067 15.62 59.48C15.62 58.6267 15.26 57.6667 14.54 56.6L3.66 40H0.14V36.8H12.18V40H7.58L15.86 52.88C16.3133 53.5467 16.6733 54.1867 16.94 54.8C17.1 55.1467 17.2333 55.5067 17.34 55.88C17.4733 56.2267 17.5667 56.5734 17.62 56.92L23.54 40H19.1V36.8H30.5V40H26.9L19.9 59.4L19.62 60.12C19.14 61.2134 18.58 62.1467 17.94 62.92C17.3 63.6934 16.58 64.28 15.78 64.68C14.98 65.08 14.1133 65.28 13.18 65.28C12.1133 65.28 11.2067 65.12 10.46 64.8C9.71333 64.4534 9.11333 64.0134 8.66 63.48C8.55333 63.3734 8.46 63.2667 8.38 63.16C8.3 63.0534 8.23333 62.9467 8.18 62.84V65.96H4.98V55.36Z" fill="#FFD700"/>
<path d="M19.21 36.8H23.45V15.2H19.21V12H30.73V15.2H26.77V24.52H31.69L39.3701 15.2H34.73V12H46.33V15.2H43.17L34.57 25.68L44.6101 36.8H47.65V40H35.01V36.8H40.25L31.77 27.44H26.77V36.8H30.41V40H19.21V36.8Z" fill="#FFD700"/>
<rect x="19.1" y="36.8" width="11.4" height="3.2" fill="#FFD700"/>
</svg>
