<svg width="14" height="15" viewBox="0 0 14 15" fill="none" xmlns="http://www.w3.org/2000/svg">
<path d="M7.74014 2.94014C7.91517 2.76516 8.15252 2.66687 8.40001 2.66687C8.64749 2.66687 8.88485 2.76516 9.05987 2.94014L13.2599 7.14014C13.4348 7.31516 13.5331 7.55252 13.5331 7.8C13.5331 8.04749 13.4348 8.28484 13.2599 8.45987L9.05987 12.6599C8.88385 12.8299 8.64808 12.924 8.40337 12.9218C8.15865 12.9197 7.92456 12.8215 7.75151 12.6485C7.57846 12.4755 7.48031 12.2414 7.47818 11.9966C7.47605 11.7519 7.57013 11.5162 7.74014 11.3401L10.2667 8.73334H1.40001C1.15247 8.73334 0.915076 8.635 0.740042 8.45997C0.565008 8.28494 0.466675 8.04754 0.466675 7.8C0.466675 7.55247 0.565008 7.31507 0.740042 7.14004C0.915076 6.965 1.15247 6.86667 1.40001 6.86667H10.2667L7.74014 4.25987C7.56517 4.08484 7.46687 3.84749 7.46687 3.6C7.46687 3.35252 7.56517 3.11516 7.74014 2.94014Z" fill="#003399"/>
</svg>
