<svg width="19" height="20" viewBox="0 0 19 20" fill="none" xmlns="http://www.w3.org/2000/svg">
<path d="M9.50004 2.38342C8.46041 2.38342 7.43096 2.58819 6.47046 2.98604C5.50997 3.38389 4.63724 3.96703 3.90211 4.70216C2.41745 6.18682 1.58337 8.20046 1.58337 10.3001C1.58337 13.7993 3.85546 16.768 6.99837 17.8209C7.39421 17.8843 7.52087 17.6388 7.52087 17.4251V16.0872C5.32796 16.5622 4.86087 15.0263 4.86087 15.0263C4.49671 14.108 3.98212 13.8626 3.98212 13.8626C3.26171 13.3718 4.03754 13.3876 4.03754 13.3876C4.82921 13.443 5.24879 14.203 5.24879 14.203C5.93754 15.4063 7.10129 15.0501 7.55254 14.8601C7.62379 14.3455 7.82962 13.9972 8.05129 13.7993C6.29379 13.6013 4.44921 12.9205 4.44921 9.90426C4.44921 9.02551 4.75004 8.32092 5.26462 7.75884C5.18546 7.56092 4.90837 6.73759 5.34379 5.66884C5.34379 5.66884 6.00879 5.45509 7.52087 6.47634C8.14629 6.30217 8.82712 6.21509 9.50004 6.21509C10.173 6.21509 10.8538 6.30217 11.4792 6.47634C12.9913 5.45509 13.6563 5.66884 13.6563 5.66884C14.0917 6.73759 13.8146 7.56092 13.7355 7.75884C14.25 8.32092 14.5509 9.02551 14.5509 9.90426C14.5509 12.9284 12.6984 13.5934 10.933 13.7913C11.218 14.0368 11.4792 14.5197 11.4792 15.2559V17.4251C11.4792 17.6388 11.6059 17.8922 12.0096 17.8209C15.1525 16.7601 17.4167 13.7993 17.4167 10.3001C17.4167 9.26046 17.2119 8.23101 16.8141 7.27051C16.4162 6.31002 15.8331 5.43729 15.098 4.70216C14.3628 3.96703 13.4901 3.38389 12.5296 2.98604C11.5691 2.58819 10.5397 2.38342 9.50004 2.38342Z" fill="#070933"/>
</svg>
