<svg width="19" height="20" viewBox="0 0 19 20" fill="none" xmlns="http://www.w3.org/2000/svg">
<path d="M15.0417 3.17505C15.4616 3.17505 15.8643 3.34186 16.1613 3.6388C16.4582 3.93573 16.625 4.33846 16.625 4.75838V15.8417C16.625 16.2616 16.4582 16.6644 16.1613 16.9613C15.8643 17.2582 15.4616 17.425 15.0417 17.425H3.95833C3.53841 17.425 3.13568 17.2582 2.83875 16.9613C2.54181 16.6644 2.375 16.2616 2.375 15.8417V4.75838C2.375 4.33846 2.54181 3.93573 2.83875 3.6388C3.13568 3.34186 3.53841 3.17505 3.95833 3.17505H15.0417ZM14.6458 15.4459V11.25C14.6458 10.5656 14.3739 9.90912 13.8899 9.42512C13.4059 8.94112 12.7495 8.66922 12.065 8.66922C11.3921 8.66922 10.6083 9.08088 10.2283 9.69838V8.81963H8.01958V15.4459H10.2283V11.543C10.2283 10.9334 10.7192 10.4346 11.3288 10.4346C11.6227 10.4346 11.9046 10.5514 12.1125 10.7593C12.3203 10.9671 12.4371 11.249 12.4371 11.543V15.4459H14.6458ZM5.44667 7.57672C5.7994 7.57672 6.1377 7.43659 6.38712 7.18717C6.63654 6.93774 6.77667 6.59945 6.77667 6.24672C6.77667 5.51047 6.18292 4.9088 5.44667 4.9088C5.09183 4.9088 4.75152 5.04976 4.50062 5.30067C4.24971 5.55157 4.10875 5.89188 4.10875 6.24672C4.10875 6.98297 4.71042 7.57672 5.44667 7.57672ZM6.54708 15.4459V8.81963H4.35417V15.4459H6.54708Z" fill="#070933"/>
</svg>
