<svg width="19" height="20" viewBox="0 0 19 20" fill="none" xmlns="http://www.w3.org/2000/svg">
<path d="M6.17504 2.38342H12.825C15.3584 2.38342 17.4167 4.44176 17.4167 6.97509V13.6251C17.4167 14.8429 16.9329 16.0108 16.0718 16.8719C15.2107 17.733 14.0428 18.2168 12.825 18.2168H6.17504C3.64171 18.2168 1.58337 16.1584 1.58337 13.6251V6.97509C1.58337 5.7573 2.06714 4.5894 2.92824 3.72829C3.78935 2.86719 4.95726 2.38342 6.17504 2.38342ZM6.01671 3.96676C5.26084 3.96676 4.53593 4.26702 4.00145 4.8015C3.46697 5.33598 3.16671 6.06089 3.16671 6.81676V13.7834C3.16671 15.3588 4.44129 16.6334 6.01671 16.6334H12.9834C13.7392 16.6334 14.4642 16.3332 14.9986 15.7987C15.5331 15.2642 15.8334 14.5393 15.8334 13.7834V6.81676C15.8334 5.24134 14.5588 3.96676 12.9834 3.96676H6.01671ZM13.6563 5.15426C13.9187 5.15426 14.1704 5.25852 14.356 5.4441C14.5416 5.62968 14.6459 5.88139 14.6459 6.14384C14.6459 6.40629 14.5416 6.658 14.356 6.84358C14.1704 7.02916 13.9187 7.13342 13.6563 7.13342C13.3938 7.13342 13.1421 7.02916 12.9565 6.84358C12.771 6.658 12.6667 6.40629 12.6667 6.14384C12.6667 5.88139 12.771 5.62968 12.9565 5.4441C13.1421 5.25852 13.3938 5.15426 13.6563 5.15426ZM9.50004 6.34176C10.5499 6.34176 11.5567 6.75879 12.299 7.50113C13.0413 8.24346 13.4584 9.25027 13.4584 10.3001C13.4584 11.3499 13.0413 12.3567 12.299 13.0991C11.5567 13.8414 10.5499 14.2584 9.50004 14.2584C8.45023 14.2584 7.44341 13.8414 6.70108 13.0991C5.95874 12.3567 5.54171 11.3499 5.54171 10.3001C5.54171 9.25027 5.95874 8.24346 6.70108 7.50113C7.44341 6.75879 8.45023 6.34176 9.50004 6.34176ZM9.50004 7.92509C8.87015 7.92509 8.26606 8.17531 7.82066 8.62071C7.37526 9.06611 7.12504 9.6702 7.12504 10.3001C7.12504 10.93 7.37526 11.5341 7.82066 11.9795C8.26606 12.4249 8.87015 12.6751 9.50004 12.6751C10.1299 12.6751 10.734 12.4249 11.1794 11.9795C11.6248 11.5341 11.875 10.93 11.875 10.3001C11.875 9.6702 11.6248 9.06611 11.1794 8.62071C10.734 8.17531 10.1299 7.92509 9.50004 7.92509Z" fill="#070933"/>
</svg>
