<svg width="50" height="51" viewBox="0 0 50 51" fill="none" xmlns="http://www.w3.org/2000/svg">
<path d="M45.3125 43.9031L33.5125 32.1031C36.3481 28.6989 37.7621 24.3326 37.4604 19.9124C37.1587 15.4922 35.1644 11.3584 31.8925 8.37113C28.6206 5.38383 24.323 3.77294 19.8937 3.87359C15.4643 3.97423 11.2443 5.77865 8.11144 8.91149C4.9786 12.0443 3.17418 16.2643 3.07354 20.6937C2.9729 25.123 4.58378 29.4207 7.57109 32.6926C10.5584 35.9645 14.6921 37.9587 19.1123 38.2604C23.5325 38.5621 27.8989 37.1481 31.3031 34.3125L43.1031 46.1125L45.3125 43.9031ZM6.24997 21.1125C6.24997 18.3312 7.07472 15.6124 8.61993 13.2998C10.1651 10.9872 12.3614 9.18482 14.931 8.12046C17.5006 7.0561 20.3281 6.77762 23.0559 7.32022C25.7838 7.86283 28.2895 9.20215 30.2562 11.1688C32.2228 13.1355 33.5622 15.6412 34.1048 18.3691C34.6474 21.0969 34.3689 23.9244 33.3045 26.494C32.2402 29.0636 30.4377 31.2599 28.1252 32.8051C25.8126 34.3503 23.0938 35.175 20.3125 35.175C16.5841 35.1709 13.0097 33.688 10.3733 31.0516C7.73701 28.4153 6.2541 24.8409 6.24997 21.1125Z" fill="#FFD700"/>
</svg>
